# xmcd
#
# Track frame offsets:
#	150
#	17407
#	38505
#	52248
#	76347
#	99888
#	114861
#	130365
#	150072
#	169713
#	183201
#	188382
#	201906
#	219207
#	233535
#	263939
#
# Disc length: 3591 seconds
#
# Revision: 0
# Processed by: cddbd v1.5.1PL0 Copyright (c) Steve Scherf et al.
# Submitted via: dBpowerAMP V4.0
#
DISCID=b40e0510
DTITLE=Spikedrivers - Delta Roots
DYEAR=1900
DGENRE=Blues
TTITLE0=That's No Way To Get Along
TTITLE1=Front Porch Swing
TTITLE2=Soul Searchin' Blues
TTITLE3=Stop Breakin' Down Blues
TTITLE4=Rhythm Guitar
TTITLE5=Hey Hey
TTITLE6=Clyde
TTITLE7=Midnight Mademoiselle
TTITLE8=I Can't be Satisfied
TTITLE9=Queen Of The One Night Stand
TTITLE10=Kansas City Kitty
TTITLE11=Am I High
TTITLE12=Life Is Fine
TTITLE13=How Long Has That Train Been Gone
TTITLE14=Hard To Get
TTITLE15=DATA
EXTD=
EXTT0=
EXTT1=
EXTT2=
EXTT3=
EXTT4=
EXTT5=
EXTT6=
EXTT7=
EXTT8=
EXTT9=
EXTT10=
EXTT11=
EXTT12=
EXTT13=
EXTT14=
EXTT15=
PLAYORDER=
